<svg width="1343" height="416" viewBox="0 0 1343 416" fill="none" xmlns="http://www.w3.org/2000/svg">
<path d="M9.45363 186.68C15.19 163.243 23.0398 142.226 32.8521 123.476C42.6644 104.727 54.59 87.6406 68.3272 72.2177C82.0643 56.6436 96.8582 43.7911 112.709 33.5091C128.559 23.076 145.316 15.2133 162.978 9.4675C180.64 3.7217 198.151 1 215.813 1C230.456 1 243.287 2.20965 254.458 4.47773C265.629 6.89701 274.535 9.16508 281.48 11.7356C288.424 14.1549 293.858 15.3645 298.085 15.3645C302.312 15.3645 307.142 13.8525 313.03 10.8284L329.484 1H331.749L343.674 109.565L333.258 114.858C328.729 100.191 323.144 87.4894 316.653 76.6026C310.162 65.7159 301.859 56.0387 292.047 47.5712C282.234 39.1037 270.158 32.6019 256.119 28.2169C241.929 23.832 225.776 21.7151 207.661 21.7151C183.508 21.7151 160.562 26.7049 139.126 36.6845C117.69 46.664 99.2735 60.4237 83.7249 77.8123C68.1762 95.3521 56.0996 116.672 47.0421 141.923C37.9846 167.175 33.6069 194.392 33.6069 223.574C33.6069 244.743 36.3241 264.853 41.7586 283.754C47.1931 302.654 55.1939 319.589 65.7609 334.861C76.3279 349.982 90.216 362.078 107.425 370.848C124.785 379.618 144.41 384.154 166.148 384.154C181.093 384.154 195.434 382.188 209.02 378.408C222.606 374.477 234.23 369.638 243.891 363.893C253.401 358.147 262.61 351.191 271.064 343.026C279.668 335.012 286.461 327.452 291.594 320.346C296.726 313.39 301.406 305.981 305.784 298.118C310.162 290.256 313.03 284.51 314.539 280.881C316.049 277.252 317.408 273.926 318.615 270.901C318.766 270.599 318.917 270.297 318.917 270.145L329.182 275.438C313.332 315.205 290.99 347.562 262.157 372.511C229.55 400.787 192.414 415 150.75 415C130.069 415 111.199 411.976 94.141 405.776C77.0827 399.577 62.8927 391.412 51.5709 381.281C40.249 371.15 30.7387 359.205 22.8889 345.597C15.19 331.988 9.6046 318.077 6.13257 303.713C2.66054 289.348 1 274.682 1 259.712C1 234.461 3.86819 210.117 9.60459 186.68H9.45363Z" fill="#231F20" stroke="#231F20" stroke-width="0.5" stroke-miterlimit="10"/>
<path d="M336.845 314.669C341.064 305.305 346.639 297.602 353.871 291.258C361.103 284.914 369.993 279.779 380.992 275.399C391.841 271.019 403.292 267.696 415.045 265.43C426.797 263.165 440.358 261.352 455.576 259.993C525.188 253.8 559.994 234.467 559.994 202.144C559.994 190.514 554.72 180.697 544.022 172.691C533.324 164.686 517.202 160.759 495.505 160.759C478.027 160.759 463.863 162.723 453.015 166.801C442.166 170.879 434.03 176.316 428.907 183.264C423.784 190.212 419.565 199.577 416.401 211.358C414.442 218.759 411.73 224.196 408.415 227.821C405.1 231.295 399.827 233.108 392.745 233.108C385.663 233.108 379.938 230.842 376.02 226.16C372.103 221.477 370.144 215.889 370.144 209.092C370.144 198.066 373.76 188.249 380.842 179.639C387.923 171.181 397.567 164.535 409.47 159.551C421.373 154.718 434.18 151.093 447.892 148.676C461.603 146.259 475.917 145.202 490.834 145.202C531.064 145.202 559.542 153.056 575.965 168.915C586.362 178.884 591.635 190.816 591.635 205.014C591.635 213.321 589.827 222.233 586.362 232.05L567.678 282.498C567.075 284.159 566.171 286.576 565.116 289.748C555.172 316.935 549.898 333.549 548.994 339.44C548.693 341.554 548.542 343.971 548.542 346.539C548.542 363.908 556.829 372.517 573.404 372.517C579.28 372.517 585.759 368.893 592.69 361.643C599.621 354.393 610.319 340.799 624.783 320.711L635.18 325.695L601.128 372.366C592.841 383.241 586.211 391.398 580.937 396.684C575.664 401.97 570.39 405.897 565.267 408.465H555.021C544.775 408.465 536.79 404.689 530.913 397.288C525.037 389.887 522.174 380.07 522.174 367.986C522.174 361.945 523.832 352.278 527.147 339.289L533.927 315.877H531.968C519.311 336.268 508.764 351.523 500.176 361.794C470.945 396.231 438.701 413.449 403.443 413.449C382.499 413.449 365.172 407.408 351.611 395.173C338.05 382.939 331.27 366.627 331.27 346.388C331.27 334.304 333.379 323.58 337.598 314.216L336.845 314.669ZM381.896 369.648C390.636 377.2 402.69 380.825 418.209 380.825C428.003 380.825 437.495 379.163 446.837 375.84C456.179 372.518 464.466 368.439 471.548 363.908C478.629 359.377 485.862 353.184 493.245 345.179C500.628 337.325 506.504 330.528 510.874 324.94C515.243 319.351 520.065 311.95 525.489 302.737C530.913 293.524 534.379 287.18 536.187 283.857C537.995 280.534 540.557 275.248 543.871 268.149C544.926 266.034 545.679 264.373 546.131 263.618L553.364 248.967H551.405C543.57 255.159 532.872 259.842 519.613 262.711C506.203 265.732 487.218 268.753 462.357 271.925L455.576 272.68C425.14 276.607 403.142 283.102 389.43 292.315C375.719 301.529 368.938 316.18 368.938 336.268C368.938 350.919 373.308 361.945 382.047 369.497L381.896 369.648Z" fill="#231F20" stroke="#231F20" stroke-width="0.5" stroke-miterlimit="10"/>
<path d="M621.239 252.018C629.569 231.047 640.473 212.792 653.952 197.252C667.431 181.713 682.879 169.191 700.599 159.535C718.319 150.03 736.038 145.202 753.758 145.202C765.874 145.202 776.627 146.56 785.866 149.276C795.104 151.991 802.525 155.461 807.977 159.535C813.429 163.759 817.973 168.738 821.456 174.471C824.94 180.204 827.363 185.937 828.574 191.519C829.786 197.102 830.392 202.835 830.392 208.869C830.392 220.185 828.12 228.633 823.88 234.517C819.487 240.25 813.429 243.268 805.705 243.268C791.166 243.268 783.897 236.026 783.897 221.542V201.929C783.897 190.011 780.716 180.958 774.355 174.773C767.994 168.587 759.513 165.57 748.609 165.57C728.163 165.57 709.232 171.152 691.663 182.467C674.095 193.782 660.162 208.869 649.863 228.03C639.565 247.04 634.415 267.709 634.415 289.585C634.415 316.138 641.988 338.316 656.981 355.968C671.975 373.62 692.118 382.521 717.41 382.521C726.8 382.521 736.038 381.012 744.974 378.146C753.91 375.279 761.785 371.658 768.449 367.283C775.113 363.059 781.625 357.778 787.834 351.442C794.044 345.105 799.193 339.372 803.131 334.243C807.069 328.962 810.855 323.229 814.641 316.892C818.427 310.556 820.851 306.03 822.214 303.314C823.577 300.598 824.94 297.732 826.303 294.715L836.753 299.995C806.16 359.589 770.115 395.798 728.466 408.622C718.167 411.79 707.566 413.449 696.813 413.449C668.492 413.449 646.683 404.85 631.538 387.801C616.393 370.753 608.82 346.614 608.82 315.384C608.82 293.96 613.061 272.838 621.391 252.018H621.239Z" fill="#231F20" stroke="#231F20" stroke-width="0.5" stroke-miterlimit="10"/>
<path d="M922.671 32.82H865.98L870.956 7.20229H963.982L965.942 9.16129C965.942 20.3125 938.049 122.633 882.264 316.273H888.596L918.6 249.365C934.582 213.802 951.468 187.732 969.561 171.156C987.503 154.58 1007.71 146.291 1030.02 146.291C1039.52 146.291 1047.96 147.798 1055.05 150.812C1062.13 153.826 1067.71 157.895 1071.48 163.169C1075.4 168.443 1078.12 173.868 1079.93 179.595C1081.74 185.321 1082.64 191.349 1082.64 197.678C1082.64 202.048 1082.34 206.568 1081.58 211.089C1080.98 215.761 1080.23 219.528 1079.77 222.693C1079.17 225.857 1077.81 230.378 1075.55 236.406C1073.29 242.433 1071.78 246.653 1070.88 249.214C1069.97 251.776 1067.71 257.201 1064.4 265.791C1060.93 274.38 1058.67 280.106 1057.46 283.12C1048.41 305.121 1042.53 319.889 1040.12 327.424C1037.56 334.958 1036.35 341.589 1036.35 347.014C1036.35 364.344 1044.65 372.933 1061.08 372.933C1067.26 372.933 1074.35 369.166 1082.19 361.48C1090.03 353.795 1100.88 340.383 1114.75 321.245L1125.16 326.218L1091.08 372.782C1076.61 392.071 1064.55 404.126 1054.75 408.798H1044.49C1034.24 408.798 1026.25 405.03 1020.37 397.647C1014.49 390.263 1011.63 380.468 1011.63 368.412C1011.63 361.028 1012.98 351.836 1015.85 340.685L1033.79 275.736C1034.39 272.873 1036.05 267.448 1038.77 259.311C1041.33 251.173 1043.14 244.392 1044.19 238.967C1045.25 233.542 1045.7 227.665 1045.7 221.186C1045.7 208.226 1042.23 197.527 1035.15 189.239C1028.06 180.8 1018.26 176.581 1005.6 176.581C994.74 176.581 985.241 179.444 977.099 185.321C968.958 191.047 960.665 201.445 952.222 216.213C943.628 230.981 933.979 252.228 922.972 279.956L872.313 408.798H841.405L922.972 32.3679L922.671 32.82Z" fill="#231F20" stroke="#231F20" stroke-width="0.5" stroke-miterlimit="10"/>
<path d="M1128.04 252.575C1136.31 231.495 1147.14 213.145 1160.53 197.524C1173.92 181.903 1189.26 169.316 1206.86 159.61C1224.46 150.055 1242.06 145.202 1259.66 145.202C1268.68 145.202 1276.8 146.415 1284.17 148.842C1291.39 151.268 1297.26 154.453 1301.77 158.396C1306.29 162.339 1310.05 166.737 1313.51 171.742C1316.82 176.747 1319.07 181.752 1319.97 186.756C1321.03 191.761 1321.78 196.462 1322.38 201.012C1322.98 205.562 1322.68 209.505 1321.48 212.69L1306.14 275.021H1142.33C1141.73 281.845 1141.27 287.001 1141.27 290.49C1141.27 317.181 1148.8 339.475 1163.69 357.219C1178.58 374.963 1198.58 383.91 1223.71 383.91C1233.03 383.91 1242.21 382.394 1251.08 379.512C1259.96 376.631 1267.78 372.991 1274.4 368.593C1281.02 364.347 1287.48 359.038 1293.65 352.669C1299.82 346.299 1304.93 340.536 1308.84 335.38C1312.75 330.072 1316.51 324.309 1320.27 317.939C1324.04 311.57 1326.44 307.02 1327.8 304.29C1329.15 301.561 1330.5 298.679 1331.86 295.646L1342.24 300.954C1311.85 360.858 1276.05 397.256 1234.69 410.147C1224.46 413.332 1213.93 415 1203.25 415C1175.12 415 1153.46 406.356 1138.42 389.218C1123.38 372.081 1115.85 347.816 1115.85 316.423C1115.85 294.888 1120.07 273.656 1128.34 252.727L1128.04 252.575ZM1295.76 248.936V233.467C1295.76 195.249 1276.8 176.14 1238.9 176.14C1217.84 176.14 1199.04 182.813 1182.79 196.311C1166.4 209.808 1154.81 227.249 1148.04 248.936H1295.76Z" fill="#231F20" stroke="#231F20" stroke-width="0.5" stroke-miterlimit="10"/>
</svg>
